<?xml version="1.0" standalone="no"?>
<!DOCTYPE svg PUBLIC "-//W3C//DTD SVG 20010904//EN"
 "http://www.w3.org/TR/2001/REC-SVG-20010904/DTD/svg10.dtd">
<svg version="1.0" xmlns="http://www.w3.org/2000/svg"
 width="1280.000000pt" height="258.000000pt" viewBox="0 0 1280.000000 258.000000"
 preserveAspectRatio="xMidYMid meet">

<g transform="translate(0.000000,258.000000) scale(0.100000,-0.100000)"
fill="#000000" stroke="none">
<path d="M980 2566 c-176 -37 -331 -128 -480 -282 -114 -118 -178 -212 -269
-396 -150 -301 -224 -629 -224 -993 -1 -149 3 -198 22 -285 55 -257 183 -444
366 -535 94 -46 184 -65 319 -65 127 0 203 17 297 66 235 123 426 386 895
1231 16 29 32 53 36 53 4 0 105 -163 224 -362 306 -510 404 -649 556 -794 134
-127 244 -177 424 -195 115 -10 199 -2 291 31 219 77 367 287 424 600 20 109
17 453 -5 600 -98 656 -420 1153 -838 1296 -292 99 -556 12 -829 -272 -41 -44
-102 -112 -134 -153 l-59 -75 -55 65 c-157 184 -336 335 -473 399 -139 65
-353 94 -488 66z m1901 -332 c354 -104 630 -674 631 -1304 0 -236 -30 -358
-106 -435 -76 -76 -203 -97 -301 -51 -126 58 -230 201 -633 866 -102 168 -197
323 -212 345 -15 22 -39 59 -53 82 l-26 41 76 109 c89 125 216 257 288 299
110 64 226 80 336 48z m-1610 -103 c83 -32 144 -75 239 -171 86 -87 230 -268
230 -291 0 -11 -99 -167 -431 -682 -217 -335 -340 -484 -445 -537 -42 -21 -63
-25 -140 -25 -83 0 -94 2 -140 30 -107 66 -153 184 -161 407 -14 370 98 770
288 1034 64 89 147 170 213 209 98 58 237 68 347 26z"/>
<path d="M4700 1275 l0 -1225 195 0 195 0 2 938 3 937 360 -648 360 -647 189
2 189 3 359 645 358 645 0 -937 0 -938 200 0 200 0 0 1225 0 1225 -238 0 -238
0 -402 -729 c-222 -400 -408 -736 -415 -745 -10 -14 -74 95 -422 726 l-411
743 -242 3 -242 2 0 -1225z"/>
<path d="M9878 2143 l-3 -268 -182 -3 -183 -2 0 -160 0 -160 185 0 184 0 3
-532 c4 -589 3 -579 72 -723 61 -127 154 -207 295 -253 128 -41 364 -42 524
-1 l37 10 0 159 0 160 -47 -8 c-27 -4 -109 -7 -183 -7 -119 0 -140 3 -175 22
-53 28 -89 68 -117 128 -23 50 -23 52 -26 548 l-3 497 276 0 275 0 0 160 0
160 -275 0 -275 0 0 270 0 270 -190 0 -190 0 -2 -267z"/>
<path d="M8445 1910 c-97 -11 -187 -36 -271 -75 -282 -130 -461 -391 -504
-739 -45 -353 80 -699 322 -895 264 -214 667 -257 1044 -112 74 29 217 115
288 175 l29 24 -76 94 c-42 51 -89 108 -104 127 l-29 33 -69 -52 c-141 -107
-277 -151 -465 -152 -119 0 -178 12 -267 54 -139 65 -253 223 -286 396 l-6 32
671 0 671 0 -6 168 c-4 133 -11 188 -31 271 -28 110 -82 237 -136 318 -75 110
-201 218 -317 269 -121 54 -314 81 -458 64z m256 -349 c168 -53 275 -192 308
-403 l8 -48 -484 0 c-456 0 -484 1 -480 18 47 171 92 257 176 334 58 53 89 71
166 99 71 26 222 25 306 0z"/>
<path d="M11765 1914 c-98 -10 -197 -39 -291 -84 -195 -94 -344 -269 -420
-494 -78 -228 -78 -525 0 -754 96 -281 302 -484 563 -553 110 -30 297 -30 407
0 136 36 220 84 319 182 l87 87 0 -124 0 -124 185 0 185 0 0 910 0 910 -185 0
-185 0 0 -116 0 -116 -62 65 c-97 99 -207 161 -340 191 -70 16 -201 26 -263
20z m290 -359 c33 -9 85 -28 115 -42 71 -34 188 -150 223 -222 l27 -55 0 -275
0 -276 -26 -51 c-82 -163 -253 -269 -449 -281 -114 -7 -191 8 -282 52 -123 61
-210 178 -255 344 -27 101 -29 304 -4 406 50 206 190 355 374 399 77 19 205
19 277 1z"/>
</g>
</svg>
