<svg width="150" height="34" viewBox="0 0 150 34" fill="none" xmlns="http://www.w3.org/2000/svg">
<mask id="mask0_1_13" style="mask-type:luminance" maskUnits="userSpaceOnUse" x="0" y="0" width="149" height="34">
<path d="M148.771 0.83918H0V33.1635H148.771V0.83918Z" fill="white"/>
</mask>
<g mask="url(#mask0_1_13)">
<path d="M54.6454 1.94989H60.2717L69.8385 19.0411L79.405 1.9499H84.9095V30.0338H80.319V8.50961L71.9303 23.4142H67.6244L59.2357 8.50961V30.0338H54.6454V1.94989Z" fill="white"/>
<path d="M99.7149 30.5339C97.5888 30.5339 95.72 30.0693 94.1088 29.1397C92.4974 28.2102 91.2414 26.9231 90.3411 25.2782C89.4404 23.6332 88.9901 21.7476 88.9904 19.6213C88.9904 17.4683 89.4305 15.5626 90.3106 13.9042C91.1907 12.2461 92.4128 10.9489 93.9768 10.0124C95.541 9.07654 97.3385 8.60849 99.3697 8.60822C101.387 8.60822 103.124 9.07961 104.58 10.0224C106.035 10.9654 107.155 12.2861 107.941 13.9844C108.726 15.6829 109.119 17.6755 109.119 19.9623V21.2058H93.5401C93.8246 22.9179 94.5254 24.2653 95.6425 25.2479C96.7596 26.231 98.1711 26.7225 99.8772 26.7223C101.245 26.7223 102.423 26.5217 103.412 26.1205C104.4 25.7193 105.327 25.1109 106.194 24.2951L108.632 27.2439C106.207 29.4374 103.235 30.5341 99.7149 30.5339ZM103.066 13.8739C102.105 12.9045 100.845 12.4197 99.2883 12.4195C97.7715 12.4195 96.5022 12.9144 95.48 13.9042C94.4573 14.8938 93.8108 16.2245 93.5401 17.8961H104.712C104.576 16.1843 104.028 14.8435 103.066 13.8739Z" fill="white"/>
<path d="M114.683 12.8225H110.458V9.11134H114.683V2.97303H119.111V9.11134H125.529V12.8225H119.111V22.2306C119.111 23.7951 119.382 24.9117 119.923 25.5805C120.465 26.2493 121.392 26.5837 122.706 26.5835C123.288 26.5835 123.782 26.5602 124.189 26.5133C124.595 26.4667 125.042 26.4031 125.529 26.3227V29.9937C124.973 30.1525 124.406 30.2732 123.833 30.3548C123.177 30.45 122.516 30.4971 121.853 30.4952C117.073 30.4952 114.683 27.9141 114.683 22.7521V12.8225Z" fill="white"/>
<path d="M148.606 30.0324H144.259V27.1035C143.487 28.2003 142.506 29.0462 141.314 29.6412C140.122 30.2359 138.768 30.5337 137.252 30.5339C135.383 30.5339 133.728 30.0625 132.286 29.1195C130.843 28.1767 129.709 26.8796 128.883 25.228C128.057 23.5764 127.644 21.6874 127.644 19.5611C127.644 17.4214 128.064 15.529 128.904 13.884C129.743 12.2392 130.904 10.9487 132.387 10.0124C133.87 9.07654 135.573 8.60849 137.495 8.60822C138.944 8.60822 140.244 8.88578 141.395 9.44085C142.531 9.9833 143.514 10.7926 144.259 11.7978V9.10984H148.606V30.0324ZM144.178 16.4317C143.704 15.2415 142.956 14.3019 141.933 13.6131C140.911 12.9245 139.729 12.5802 138.389 12.5802C136.493 12.5802 134.983 13.2087 133.86 14.4657C132.736 15.7228 132.174 17.4213 132.174 19.5611C132.174 21.7143 132.715 23.4195 133.799 24.6764C134.882 25.9335 136.351 26.562 138.206 26.562C139.574 26.562 140.792 26.2142 141.862 25.5187C142.932 24.8236 143.704 23.8876 144.178 22.7104V16.4317Z" fill="white"/>
<path d="M13.0943 1.00052C13.0798 1.00052 13.0655 1.00057 13.051 1.00065L12.9918 5.82978C13.0053 5.82964 13.0189 5.82952 13.0324 5.82952C16.2509 5.82952 18.7473 8.3357 24.1732 17.362L24.504 17.9116L24.5256 17.9475L27.5629 13.4466L27.542 13.4119C26.8272 12.2637 26.1404 11.2073 25.4819 10.2426C24.7181 9.12497 23.9876 8.12651 23.2787 7.23505C19.6893 2.72138 16.6867 1.00052 13.0943 1.00052Z" fill="url(#paint0_linear_1_13)"/>
<path d="M13.049 1.00065C9.43919 1.01899 6.24791 3.3243 3.94351 6.85192C3.93675 6.86224 3.93001 6.87259 3.92327 6.88296L8.15325 9.15676C8.16011 9.14648 8.167 9.13619 8.17391 9.12596C9.51953 7.12501 11.1941 5.84877 12.9898 5.82978C13.0033 5.82964 13.0168 5.82952 13.0304 5.82952L13.0923 1.00052C13.0778 1.00052 13.0634 1.00057 13.049 1.00065Z" fill="url(#paint1_linear_1_13)"/>
<path d="M3.94381 6.85313C3.93705 6.86345 3.93031 6.87379 3.92357 6.88416C2.40933 9.21214 1.28051 12.0688 0.67046 15.1507C0.667817 15.1641 0.665183 15.1774 0.66256 15.1908L5.41477 16.2982C5.41723 16.2848 5.41974 16.2714 5.42225 16.258C5.93018 13.5496 6.89726 11.0376 8.1535 9.15796C8.16039 9.14769 8.16727 9.13739 8.17418 9.12714L3.94381 6.85313Z" fill="url(#paint2_linear_1_13)"/>
<path d="M5.42543 16.2612L0.673628 15.1539C0.670984 15.1672 0.668351 15.1806 0.665727 15.194C0.333076 16.8889 0.163841 18.6111 0.16029 20.3375C0.160262 20.3515 0.160251 20.3654 0.160257 20.3794L5.03383 20.81C5.03344 20.796 5.03304 20.7821 5.0327 20.7681C5.03031 20.6679 5.02908 20.5664 5.02906 20.4636C5.03147 19.0675 5.16163 17.6744 5.41793 16.3014C5.42041 16.288 5.4229 16.2746 5.42543 16.2612Z" fill="url(#paint3_linear_1_13)"/>
<path d="M5.18206 22.3034C5.09464 21.8072 5.04509 21.3052 5.03383 20.8017C5.03344 20.7876 5.03304 20.7738 5.0327 20.7597L0.16029 20.3292C0.160262 20.3431 0.160251 20.3571 0.160257 20.371V20.3738C0.160257 21.4482 0.250984 22.4543 0.42731 23.3836C0.42986 23.3971 0.432366 23.4103 0.434955 23.4237L5.18944 22.3435C5.18693 22.3302 5.18449 22.3168 5.18206 22.3034Z" fill="url(#paint4_linear_1_13)"/>
<path d="M6.29328 24.8036C5.76295 24.232 5.38763 23.4073 5.19032 22.3527C5.18781 22.3393 5.18537 22.3259 5.18294 22.3125L0.428185 23.3928C0.430735 23.4062 0.43324 23.4194 0.435827 23.4328C0.79521 25.2964 1.50002 26.8495 2.50937 28.0244C2.51835 28.0348 2.52735 28.0453 2.5364 28.0557L6.32161 24.8337C6.31214 24.8238 6.30265 24.8138 6.29328 24.8036Z" fill="url(#paint5_linear_1_13)"/>
<path d="M20.3782 11.4396C17.513 15.78 15.7773 18.5023 15.7773 18.5023C11.9606 24.4112 10.6402 25.7355 8.51519 25.7355C7.62849 25.7355 6.88774 25.4237 6.32022 24.8277C6.31078 24.8178 6.30127 24.8078 6.2919 24.7976L2.50801 28.0184C2.51699 28.0288 2.52599 28.0393 2.53501 28.0497C3.92871 29.654 5.8959 30.5443 8.32954 30.5443C12.0114 30.5443 14.6595 28.83 19.3671 20.7029C19.3671 20.7029 21.3295 17.2804 22.6795 14.9228C21.8433 13.5894 21.0822 12.435 20.3782 11.4396Z" fill="#0082FB"/>
<path d="M25.486 4.59089C25.4762 4.60102 25.4663 4.61136 25.4567 4.62151C24.7043 5.41325 23.9822 6.2974 23.2797 7.23548C23.9886 8.12694 24.7205 9.12734 25.4843 10.245C26.3845 8.87275 27.2248 7.76134 28.0483 6.90949C28.0581 6.89939 28.0677 6.88958 28.0776 6.87955L25.486 4.59089Z" fill="url(#paint6_linear_1_13)"/>
<path d="M39.3942 4.16407C37.396 2.17036 35.0134 1.00052 32.4664 1.00052C29.7806 1.00052 27.5215 2.45409 25.4837 4.58954C25.4742 4.59966 25.4643 4.61001 25.4547 4.62016L28.0463 6.90817C28.0561 6.89806 28.0657 6.88825 28.0753 6.87822C29.4177 5.49925 30.7168 4.81075 32.1568 4.81075C33.7067 4.81075 35.158 5.53136 36.4146 6.79468C36.4244 6.80459 36.4342 6.8144 36.4441 6.82438L39.4239 4.19375C39.4138 4.18379 39.404 4.17398 39.3942 4.16407Z" fill="#0082FB"/>
<path d="M45.1698 19.6969C45.0579 13.2955 42.7898 7.57268 39.4231 4.19311C39.413 4.18317 39.4032 4.17334 39.3931 4.16343L36.4138 6.79403C36.4236 6.80394 36.4334 6.81375 36.4433 6.82373C38.9761 9.39319 40.7131 14.1724 40.8712 19.6955C40.8715 19.7094 40.872 19.7233 40.8725 19.7373L45.1706 19.7386C45.1703 19.7247 45.1701 19.7108 45.1698 19.6969Z" fill="url(#paint7_linear_1_13)"/>
<path d="M45.1697 19.7416C45.1695 19.7277 45.1695 19.7138 45.1692 19.6999L40.8704 19.6986C40.8708 19.7124 40.8713 19.7264 40.8716 19.7403C40.8787 19.9995 40.8822 20.2603 40.8822 20.5226C40.8822 22.0285 40.6545 23.2458 40.1912 24.1247C40.1843 24.1377 40.1774 24.1508 40.1703 24.1636L43.3754 27.4556C43.3832 27.4437 43.3911 27.4318 43.399 27.4199C44.5626 25.6468 45.1734 23.1836 45.1734 20.1966C45.1734 20.0446 45.1722 19.8929 45.1697 19.7416Z" fill="url(#paint8_linear_1_13)"/>
<path d="M40.1927 24.1188C40.1859 24.1318 40.179 24.1449 40.1718 24.1578C39.771 24.8986 39.1991 25.3926 38.451 25.6088L39.9122 30.1563C40.1057 30.0914 40.2941 30.0186 40.4772 29.9377C40.5321 29.9136 40.5862 29.8889 40.64 29.8634C40.6713 29.8488 40.702 29.8337 40.7327 29.8187C41.6989 29.3432 42.5153 28.6418 43.1755 27.7381C43.2159 27.683 43.2559 27.6274 43.295 27.5706C43.3226 27.5307 43.3499 27.4904 43.3769 27.4499C43.3848 27.4377 43.3927 27.4258 43.4005 27.4139L40.1927 24.1188Z" fill="url(#paint9_linear_1_13)"/>
<path d="M37.5216 25.7277C37.0318 25.7277 36.5995 25.6558 36.1766 25.469L34.6805 30.1248C35.5212 30.4085 36.4183 30.5365 37.4186 30.5365C38.3402 30.5365 39.1861 30.4 39.9531 30.1377L38.4925 25.5917C38.1775 25.6847 37.8504 25.7306 37.5216 25.7277Z" fill="url(#paint10_linear_1_13)"/>
<path d="M34.5291 24.146C34.52 24.1356 34.5107 24.125 34.5013 24.1143L31.0592 27.6501C31.0688 27.6603 31.0784 27.6705 31.088 27.6804C32.284 28.9394 33.4262 29.7202 34.7214 30.1488L36.2162 25.4964C35.6703 25.265 35.1426 24.8453 34.5291 24.146Z" fill="url(#paint11_linear_1_13)"/>
<path d="M34.4995 24.1077C33.467 22.9218 32.1895 20.9474 30.1805 17.7546L27.5622 13.442L27.5413 13.4072L24.5032 17.9069L24.5248 17.9428L26.3801 21.0251C28.1784 23.9971 29.6435 26.1473 31.0572 27.6433C31.0668 27.6535 31.0764 27.6637 31.0859 27.6739L34.5271 24.1394C34.518 24.1289 34.5086 24.1183 34.4995 24.1077Z" fill="url(#paint12_linear_1_13)"/>
</g>
<defs>
<linearGradient id="paint0_linear_1_13" x1="25.5441" y1="16.1172" x2="15.6182" y2="2.94769" gradientUnits="userSpaceOnUse">
<stop offset="0.0006" stop-color="#0867DF"/>
<stop offset="0.4539" stop-color="#0668E1"/>
<stop offset="0.8591" stop-color="#0064E0"/>
</linearGradient>
<linearGradient id="paint1_linear_1_13" x1="5.91016" y1="7.66336" x2="12.7603" y2="2.39758" gradientUnits="userSpaceOnUse">
<stop offset="0.1323" stop-color="#0064DF"/>
<stop offset="0.9988" stop-color="#0064E0"/>
</linearGradient>
<linearGradient id="paint2_linear_1_13" x1="2.9802" y1="15.2712" x2="5.69424" y2="8.35351" gradientUnits="userSpaceOnUse">
<stop offset="0.0147" stop-color="#0072EC"/>
<stop offset="0.6881" stop-color="#0064DF"/>
</linearGradient>
<linearGradient id="paint3_linear_1_13" x1="2.60676" y1="20.2551" x2="2.91978" y2="16.0439" gradientUnits="userSpaceOnUse">
<stop offset="0.0731" stop-color="#007CF6"/>
<stop offset="0.9943" stop-color="#0072EC"/>
</linearGradient>
<linearGradient id="paint4_linear_1_13" x1="2.78322" y1="22.534" x2="2.55924" y2="20.8462" gradientUnits="userSpaceOnUse">
<stop offset="0.0731" stop-color="#007FF9"/>
<stop offset="1" stop-color="#007CF6"/>
</linearGradient>
<linearGradient id="paint5_linear_1_13" x1="2.64937" y1="22.9863" x2="4.05087" y2="25.9962" gradientUnits="userSpaceOnUse">
<stop offset="0.0731" stop-color="#007FF9"/>
<stop offset="1" stop-color="#0082FB"/>
</linearGradient>
<linearGradient id="paint6_linear_1_13" x1="24.6342" y1="8.48425" x2="26.4944" y2="5.87917" gradientUnits="userSpaceOnUse">
<stop offset="0.2799" stop-color="#007FF8"/>
<stop offset="0.9141" stop-color="#0082FB"/>
</linearGradient>
<linearGradient id="paint7_linear_1_13" x1="39.009" y1="5.13449" x2="42.8743" y2="19.5316" gradientUnits="userSpaceOnUse">
<stop stop-color="#0082FB"/>
<stop offset="0.9995" stop-color="#0081FA"/>
</linearGradient>
<linearGradient id="paint8_linear_1_13" x1="43.9195" y1="20.0601" x2="41.4655" y2="25.0812" gradientUnits="userSpaceOnUse">
<stop offset="0.0619" stop-color="#0081FA"/>
<stop offset="1" stop-color="#0080F9"/>
</linearGradient>
<linearGradient id="paint9_linear_1_13" x1="39.4275" y1="27.7002" x2="41.7494" y2="26.0989" gradientUnits="userSpaceOnUse">
<stop stop-color="#027AF3"/>
<stop offset="1" stop-color="#0080F9"/>
</linearGradient>
<linearGradient id="paint10_linear_1_13" x1="35.7578" y1="28.0027" x2="39.0101" y2="28.0027" gradientUnits="userSpaceOnUse">
<stop stop-color="#0377EF"/>
<stop offset="0.9994" stop-color="#0279F1"/>
</linearGradient>
<linearGradient id="paint11_linear_1_13" x1="32.9312" y1="26.2444" x2="35.2542" y2="27.6282" gradientUnits="userSpaceOnUse">
<stop offset="0.0019" stop-color="#0471E9"/>
<stop offset="1" stop-color="#0377EF"/>
</linearGradient>
<linearGradient id="paint12_linear_1_13" x1="25.7971" y1="16.2204" x2="33.173" y2="25.6102" gradientUnits="userSpaceOnUse">
<stop offset="0.2765" stop-color="#0867DF"/>
<stop offset="1" stop-color="#0471E9"/>
</linearGradient>
</defs>
</svg>
